<svg height="480pt" viewBox="0 -19 480 480" width="480pt" xmlns="http://www.w3.org/2000/svg"><path d="m168 313.394531h-48c-4.417969 0-8 3.582031-8 8v48c0 4.417969 3.582031 8 8 8h48c4.417969 0 8-3.582031 8-8v-48c0-4.417969-3.582031-8-8-8zm-8 48h-32v-32h32zm0 0"/><path d="m280 225.394531h-80c-8.835938 0-16 7.164063-16 16v32c0 8.835938 7.164062 16 16 16h80c8.835938 0 16-7.164062 16-16v-32c0-8.835937-7.164062-16-16-16zm0 24h-32v-8h32zm-48-8v8h-32v-8zm-32 24h32v8h-32zm48 8v-8h32v8zm0 0"/><path d="m439.304688 385.945312c-1.992188-10.519531-8.117188-19.804687-17.011719-25.769531-8.890625-5.96875-19.800781-8.121093-30.292969-5.980469v-141.488281l14.34375 14.34375c9.75 9.75 25.5625 9.75 35.3125 0s9.75-25.5625 0-35.3125l-22.34375-22.34375h28.6875c13.253906 0 24-10.746093 24-24v-96c0-13.253906-10.746094-24-24-24h-172.6875l-18.402344-18.398437c-9.363281-9.328125-24.503906-9.328125-33.871094 0l-184.695312 184.742187c-9.75 9.75-9.75 25.5625 0 35.3125s25.5625 9.75 35.3125 0l14.34375-14.34375v167.742188c-8.710938-10.105469-22.800781-13.714844-35.296875-9.039063-12.5 4.671875-20.761719 16.640625-20.703125 29.984375-17.671875 0-32 14.328125-32 32 0 4.417969 3.582031 8 8 8h464c4.417969 0 8-3.582031 8-8-.03125-23.679687-17.296875-43.8125-40.695312-47.449219zm-71.367188-16.222656c0-.113281.0625-.207031.0625-.328125v-48c0-4.417969-3.582031-8-8-8h-48c-4.417969 0-8 3.582031-8 8v48c0 4.417969 3.582031 8 8 8h48c1.457031-.035156 2.875-.484375 4.089844-1.289062-2.660156 5.378906-4.058594 11.292969-4.089844 17.289062v.800781c-15.683594 3.234376-27.925781 15.507813-31.121094 31.199219h-32.878906v-120c0-4.417969-3.582031-8-8-8h-96c-4.417969 0-8 3.582031-8 8v120h-48.710938c-2.933593-17.152343-14.898437-31.382812-31.289062-37.214843v-186.785157h272v160.207031c-3.0625 2.308594-5.777344 5.042969-8.0625 8.121094zm-15.9375-40.328125v32h-32v-32zm78.34375-126.34375c3.496094 3.507813 3.496094 9.183594 0 12.6875-3.511719 3.488281-9.175781 3.488281-12.6875 0l-46.34375-46.34375h25.375zm25.65625-153.65625v96c0 4.417969-3.582031 8-8 8h-208c-4.417969 0-8-3.582031-8-8v-96c0-4.417969 3.582031-8 8-8h208c4.417969 0 8 3.582031 8 8zm-393.65625 166.34375c-3.507812 3.496094-9.179688 3.496094-12.6875 0-3.488281-3.507812-3.488281-9.175781 0-12.6875l184.742188-184.71875c3.117187-3.082031 8.132812-3.082031 11.25 0l7.0625 7.0625h-12.710938c-13.253906 0-24 10.746094-24 24v12.6875zm153.65625-131.03125v60.6875c0 13.253907 10.746094 24 24 24h108.6875l16 16h-249.375zm-197.847656 340.6875c4.214844-7.25 13.324218-10 20.847656-6.289062 3.074219 1.511719 6.769531.898437 9.191406-1.523438 2.421875-2.425781 3.027344-6.121093 1.511719-9.195312-1.097656-2.167969-1.679687-4.5625-1.703125-6.992188-.035156-7.804687 5.589844-14.488281 13.289062-15.785156 7.699219-1.296875 15.203126 3.175781 17.726563 10.5625 1.054687 3.375 4.285156 5.589844 7.816406 5.359375.394531.003906.785157-.042969 1.167969-.136719 14.585938.019531 27.324219 9.882813 30.992188 24zm181.847656 0v-112h80v112zm145.367188 0c3.28125-9.457031 12.128906-15.851562 22.136718-16 .273438.039063 1.070313.128907 1.34375.136719 2.550782.167969 5.011719-.953125 6.558594-2.984375 1.589844-1.980469 2.144531-4.59375 1.496094-7.046875-.5625-1.988281-.867188-4.039062-.902344-6.105469 0-13.253906 10.746094-24 24-24s24 10.746094 24 24c0 4.417969 3.582031 8 8 8 14.585938.019531 27.324219 9.882813 30.992188 24zm0 0"/><path d="m224 337.394531h-16v16h8v16h-8v16h16c4.417969 0 8-3.582031 8-8v-32c0-4.417969-3.582031-8-8-8zm0 0"/><path d="m264 105.394531h8c4.417969 0 8 3.582031 8 8s-3.582031 8-8 8h-8c-4.417969 0-8-3.582031-8-8h-16c0 13.253907 10.746094 24 24 24h8c13.253906 0 24-10.746093 24-24 0-13.253906-10.746094-24-24-24h-8c-4.417969 0-8-3.582031-8-8s3.582031-8 8-8h8c4.417969 0 8 3.582031 8 8h16c0-13.253906-10.746094-24-24-24h-8c-13.253906 0-24 10.746094-24 24 0 13.253907 10.746094 24 24 24zm0 0"/><path d="m416 137.394531h32v-16h-24v-16h16v-16h-16v-16h24v-16h-32c-4.417969 0-8 3.582031-8 8v64c0 4.417969 3.582031 8 8 8zm0 0"/><path d="m368 137.394531h32v-16h-24v-64h-16v72c0 4.417969 3.582031 8 8 8zm0 0"/><path d="m320 105.394531h16v32h16v-56c0-13.253906-10.746094-24-24-24s-24 10.746094-24 24v56h16zm8-32c4.417969 0 8 3.582031 8 8v8h-16v-8c0-4.417969 3.582031-8 8-8zm0 0"/></svg>